<svg width="232" height="85" viewBox="0 0 232 85" fill="none" xmlns="http://www.w3.org/2000/svg">
<path d="M16.3678 82.5074C15.7463 82.5074 15.2283 82.5074 14.6067 82.5074C13.3636 82.5074 12.2241 82.3944 10.981 82.1683C9.84143 81.9423 8.80549 81.6032 7.76955 81.0381C6.73361 80.473 5.90486 79.7949 5.07611 78.8907C4.24736 77.9865 3.6258 77.0823 3.10783 75.952C2.58986 74.8218 2.27908 73.6916 2.07189 72.4483C1.8647 71.092 1.76111 69.8488 1.76111 68.4925C1.76111 68.0404 1.76111 66.5711 1.76111 66.5711V17.8579C1.76111 17.8579 1.76111 16.3886 1.76111 15.9365C1.76111 14.5803 1.8647 13.337 2.07189 11.9807C2.27908 10.7375 2.58986 9.60723 3.10783 8.477C3.6258 7.34676 4.24736 6.44257 5.07611 5.53838C5.80127 4.6342 6.73361 3.95605 7.76955 3.39094C8.80549 2.82582 9.84143 2.48675 10.981 2.2607C12.2241 2.03465 13.3636 1.92163 14.6067 1.92163H16.3678H215.164H216.925C218.169 1.92163 219.308 2.03465 220.551 2.2607C221.691 2.48675 222.727 2.82582 223.763 3.39094C225.731 4.52117 227.388 6.32955 228.424 8.477C228.942 9.60723 229.253 10.7375 229.46 11.9807C229.668 13.337 229.771 14.5803 229.771 15.9365C229.771 16.5017 229.771 17.1798 229.771 17.8579C229.771 18.6491 229.771 19.4403 229.771 20.1184V64.3106C229.771 65.1018 229.771 65.7799 229.771 66.5711C229.771 67.2492 229.771 67.9274 229.771 68.4925C229.771 69.8488 229.668 71.092 229.46 72.4483C229.253 73.6916 228.942 74.8218 228.424 75.952C227.906 77.0823 227.285 77.9865 226.456 78.8907C225.627 79.7949 224.799 80.473 223.763 81.0381C222.727 81.6032 221.691 81.9423 220.551 82.1683C219.308 82.3944 218.169 82.5074 216.925 82.5074C216.407 82.5074 215.786 82.5074 215.164 82.5074H213.092H16.3678Z" fill="black"/>
<path d="M47.8603 42.8363C47.8603 39.2196 49.6214 35.9419 52.4184 34.0205C50.6573 31.3079 47.7567 29.6126 44.6489 29.4995C41.541 29.1605 38.3296 31.647 36.6721 31.647C35.0146 31.647 32.4248 29.6126 29.7314 29.6126C26.1056 29.7256 22.7906 31.873 21.0295 35.3768C17.3001 42.4973 20.0971 52.7824 23.6193 58.5466C25.3804 61.3722 27.5559 64.4238 30.2493 64.3108C32.9428 64.1978 33.9787 62.3894 37.1901 62.3894C40.4015 62.3894 41.3339 64.3108 44.1309 64.1978C47.0315 64.1978 48.7926 61.3722 50.5537 58.5466C51.7968 56.5122 52.8328 54.3647 53.4543 51.9912C50.1393 50.5219 47.8603 46.9052 47.8603 42.8363Z" fill="white"/>
<path d="M42.5772 25.7696C44.1311 23.7352 44.9599 21.0226 44.7527 18.4231C42.37 18.6491 40.091 19.8924 38.5371 21.9268C36.9832 23.8482 36.1544 26.4478 36.3616 29.0473C38.7443 29.0473 41.1269 27.804 42.5772 25.7696Z" fill="white"/>
<path d="M81.839 57.3029H72.7227L70.4437 64.3104H66.6107L75.3126 38.0889H79.3528L88.0546 64.3104H84.1181L81.839 57.3029ZM73.6551 54.0252H80.9067L77.2809 42.4968H77.1773L73.6551 54.0252Z" fill="white"/>
<path d="M106.702 54.8161C106.702 60.8064 103.801 64.5361 99.3464 64.5361C97.0674 64.6492 94.8919 63.4059 93.856 61.1454H93.7524V70.6394H90.1266V45.2091H93.6488V48.3738H93.7524C94.8919 46.2263 97.0674 44.87 99.3464 44.9831C103.801 45.0961 106.702 48.8259 106.702 54.8161ZM102.972 54.8161C102.972 50.9733 101.108 48.3738 98.3105 48.3738C95.5135 48.3738 93.7524 50.9733 93.7524 54.8161C93.7524 58.6589 95.6171 61.2584 98.3105 61.2584C101.108 61.2584 102.972 58.6589 102.972 54.8161Z" fill="white"/>
<path d="M125.97 54.8161C125.97 60.8064 123.069 64.5361 118.615 64.5361C116.335 64.6492 114.16 63.4059 113.124 61.1454H113.02V70.6394H109.395V45.2091H112.917V48.3738H113.02C114.16 46.2263 116.335 44.87 118.615 44.9831C123.069 45.0961 125.97 48.8259 125.97 54.8161ZM122.24 54.8161C122.24 50.9733 120.376 48.3738 117.579 48.3738C114.782 48.3738 113.02 50.9733 113.02 54.8161C113.02 58.6589 114.885 61.2584 117.579 61.2584C120.479 61.2584 122.24 58.6589 122.24 54.8161Z" fill="white"/>
<path d="M138.712 57.0771C139.023 59.6766 141.302 61.372 144.409 61.372C147.414 61.372 149.589 59.6766 149.589 57.3031C149.589 55.2687 148.242 54.0254 145.135 53.2343L142.027 52.4431C137.572 51.3129 135.604 49.0524 135.604 45.3226C135.604 40.8017 139.23 37.7501 144.306 37.7501C149.382 37.7501 152.904 40.8017 153.008 45.3226H149.382C149.175 42.7231 147.206 41.1408 144.306 41.1408C141.405 41.1408 139.437 42.7231 139.437 45.0966C139.437 46.905 140.68 48.0352 143.788 48.8264L146.481 49.5045C151.454 50.7478 153.422 52.8952 153.422 56.738C153.422 61.598 149.796 64.7627 144.099 64.7627C138.815 64.7627 135.19 61.711 134.982 57.0771H138.712Z" fill="white"/>
<path d="M161.192 40.6884V45.2093H164.507V48.2609H161.192V58.7721C161.192 60.3544 161.813 61.1456 163.367 61.1456C163.781 61.1456 164.196 61.1456 164.507 61.0326V64.0842C163.885 64.1972 163.16 64.3103 162.538 64.3103C159.016 64.3103 157.566 62.841 157.566 59.1112V48.1479H154.976V45.2093H157.566V40.6884H161.192Z" fill="white"/>
<path d="M166.475 54.8164C166.475 48.8262 169.686 44.9834 174.762 44.9834C179.839 44.9834 183.05 48.7132 183.05 54.8164C183.05 60.8067 179.839 64.6495 174.762 64.6495C169.686 64.5365 166.475 60.8067 166.475 54.8164ZM179.424 54.8164C179.424 50.7476 177.663 48.2611 174.762 48.2611C171.862 48.2611 170.101 50.7476 170.101 54.8164C170.101 58.9983 171.862 61.3718 174.762 61.3718C177.663 61.3718 179.424 58.8853 179.424 54.8164Z" fill="white"/>
<path d="M186.054 45.2094H189.473V48.4871H189.577C190.094 46.3397 191.856 44.9834 193.824 44.9834C194.238 44.9834 194.653 44.9834 195.067 45.0964V48.7132C194.549 48.4871 194.031 48.4871 193.409 48.4871C191.441 48.3741 189.68 50.0695 189.68 52.3299C189.68 52.556 189.68 52.782 189.68 52.895V64.1974H186.054V45.2094Z" fill="white"/>
<path d="M211.538 58.7722C211.02 62.2759 207.913 64.6494 203.976 64.6494C198.9 64.6494 195.689 60.9197 195.689 54.9294C195.689 48.9392 198.9 45.0964 203.769 45.0964C208.638 45.0964 211.642 48.7131 211.642 54.4773V55.8336H199.314V56.0597C199.107 58.7722 200.972 61.2587 203.458 61.4848C203.665 61.4848 203.873 61.4848 204.08 61.4848C205.841 61.7108 207.498 60.5806 208.12 58.7722H211.538ZM199.418 53.008H208.223C208.327 50.5215 206.566 48.261 204.287 48.148C204.183 48.148 204.08 48.148 203.976 48.148C201.386 48.148 199.418 50.2955 199.418 53.008Z" fill="white"/>
<path d="M73.1366 18.4236C75.9336 18.1975 78.4199 20.458 78.6271 23.6227C78.6271 23.9617 78.6271 24.4138 78.6271 24.7529C78.6271 28.8217 76.6588 31.0822 73.2402 31.0822H69.0964V18.4236H73.1366ZM70.7539 29.2738H72.9294C74.8977 29.3869 76.6588 27.6915 76.7624 25.5441C76.7624 25.318 76.7624 24.9789 76.7624 24.7529C77.0732 22.6055 75.6228 20.571 73.6546 20.232C73.4474 20.232 73.2402 20.232 72.9294 20.232H70.7539V29.2738Z" fill="white"/>
<path d="M80.596 26.2217C80.3888 23.7352 82.0463 21.5877 84.3254 21.3617C86.6044 21.1356 88.5727 22.944 88.7799 25.4305C88.7799 25.7696 88.7799 25.9956 88.7799 26.3347C88.9871 28.8212 87.3296 30.9687 85.0505 31.3077C82.875 31.4208 80.8032 29.6124 80.596 27.1259C80.596 26.7868 80.596 26.5607 80.596 26.2217ZM87.0188 26.2217C87.0188 24.1873 86.19 22.944 84.6361 22.944C83.1858 22.944 82.2535 24.1873 82.2535 26.2217C82.2535 28.2561 83.0822 29.4994 84.6361 29.4994C86.19 29.4994 87.0188 28.3691 87.0188 26.2217Z" fill="white"/>
<path d="M99.7606 30.9686H97.9995L96.2385 23.9612H96.1349L94.2702 30.9686H92.5091L90.0228 21.4747H91.7839L93.3378 28.7082H93.4414L95.3061 21.4747H96.9636L98.7247 28.7082H98.8283L100.382 21.4747H102.143L99.7606 30.9686Z" fill="white"/>
<path d="M104.112 21.4755H105.769V22.9448H105.873C106.287 21.8146 107.323 21.1365 108.463 21.2495C110.016 21.1365 111.363 22.3797 111.467 24.0751C111.467 24.3011 111.467 24.5272 111.467 24.7532V30.8565H109.809V25.2053C109.809 23.623 109.188 22.9448 107.945 22.9448C106.805 22.9448 105.873 23.849 105.873 24.9793C105.873 25.0923 105.873 25.2053 105.873 25.3183V30.8565H104.112V21.4755Z" fill="white"/>
<path d="M114.263 17.8582H116.025V31.0819H114.263V17.8582Z" fill="white"/>
<path d="M118.408 26.2217C118.2 23.7352 119.858 21.5877 122.137 21.3617C124.416 21.1356 126.384 22.944 126.592 25.4305C126.592 25.7696 126.592 25.9956 126.592 26.3347C126.799 28.8212 125.141 30.9687 122.862 31.3077C120.583 31.5338 118.615 29.7254 118.304 27.2389C118.408 26.7868 118.408 26.5608 118.408 26.2217ZM124.83 26.2217C124.83 24.1873 124.002 22.944 122.448 22.944C120.998 22.944 120.065 24.1873 120.065 26.2217C120.065 28.2561 120.894 29.4994 122.448 29.4994C124.002 29.4994 124.83 28.3691 124.83 26.2217Z" fill="white"/>
<path d="M128.456 28.3699C128.456 26.6746 129.596 25.6574 131.667 25.5444L134.05 25.4313V24.6402C134.05 23.623 133.429 23.0578 132.289 23.0578C131.357 23.0578 130.632 23.3969 130.424 24.0751H128.767C128.974 22.4927 130.321 21.3625 132.289 21.3625C134.464 21.3625 135.708 22.4927 135.708 24.5271V30.9695H134.05V29.6132H133.947C133.429 30.6304 132.393 31.1955 131.357 31.0825C129.906 31.1955 128.663 30.0653 128.456 28.483C128.456 28.483 128.456 28.3699 128.456 28.3699ZM134.05 27.4658V26.6746L131.875 26.7876C130.632 26.9006 130.114 27.3527 130.114 28.1439C130.114 29.0481 130.839 29.5002 131.771 29.5002C132.911 29.7262 133.947 28.822 134.05 27.4658C134.05 27.5788 134.05 27.5788 134.05 27.4658Z" fill="white"/>
<path d="M137.987 26.2219C137.987 23.1703 139.437 21.3619 141.613 21.3619C142.752 21.3619 143.788 21.927 144.306 23.0572H144.41V17.8582H146.171V31.0819H144.513V29.6126H144.41C143.892 30.6298 142.752 31.308 141.716 31.308C139.437 31.1949 137.987 29.2735 137.987 26.2219ZM139.748 26.2219C139.748 28.2563 140.577 29.4996 142.027 29.4996C143.477 29.4996 144.41 28.2563 144.41 26.3349C144.41 24.3005 143.477 23.0572 142.027 23.0572C140.68 23.0572 139.748 24.3005 139.748 26.2219Z" fill="white"/>
<path d="M153.215 26.2217C153.008 23.7352 154.666 21.5877 156.945 21.3617C159.224 21.1356 161.192 22.944 161.399 25.4305C161.399 25.7696 161.399 25.9956 161.399 26.3347C161.606 28.8212 159.949 30.9687 157.67 31.3077C155.391 31.5338 153.422 29.7254 153.112 27.2389C153.215 26.7868 153.215 26.5608 153.215 26.2217ZM159.638 26.2217C159.638 24.1873 158.809 22.944 157.255 22.944C155.805 22.944 154.873 24.1873 154.873 26.2217C154.873 28.2561 155.702 29.4994 157.255 29.4994C158.809 29.4994 159.638 28.3691 159.638 26.2217Z" fill="white"/>
<path d="M163.781 21.4755H165.439V22.9448H165.542C165.957 21.8146 166.993 21.1365 168.132 21.2495C169.686 21.1365 171.033 22.3797 171.136 24.0751C171.136 24.3011 171.136 24.5272 171.136 24.7532V30.8565H169.375V25.2053C169.375 23.623 168.754 22.9448 167.511 22.9448C166.371 22.9448 165.439 23.849 165.439 24.9793C165.439 25.0923 165.439 25.2053 165.439 25.3183V30.8565H163.678V21.4755H163.781Z" fill="white"/>
<path d="M180.875 19.1012V21.4747H182.739V23.057H180.875V27.917C180.875 28.9342 181.289 29.3863 182.118 29.3863C182.325 29.3863 182.532 29.3863 182.739 29.3863V30.9687C182.428 31.0817 182.118 31.0817 181.807 31.0817C179.942 31.0817 179.113 30.4036 179.113 28.4822V23.17H177.767V21.5877H179.113V19.2142H180.875V19.1012Z" fill="white"/>
<path d="M185.121 17.8582H186.779V23.0572H186.882C187.4 21.927 188.436 21.2489 189.576 21.3619C191.13 21.2489 192.477 22.6051 192.58 24.3005C192.58 24.5265 192.58 24.6396 192.58 24.8656V30.9689H190.819V25.3177C190.819 23.8484 190.198 23.0572 188.954 23.0572C187.815 22.9442 186.883 23.8484 186.779 25.0917C186.779 25.2047 186.779 25.3177 186.779 25.4307V30.9689H185.018L185.121 17.8582Z" fill="white"/>
<path d="M202.629 28.483C202.111 30.2913 200.558 31.4216 198.9 31.1955C196.725 31.3086 194.86 29.3872 194.86 27.0137C194.86 26.7876 194.86 26.5616 194.86 26.3355C194.549 23.962 196.103 21.7016 198.278 21.3625C198.486 21.3625 198.693 21.3625 198.796 21.3625C201.179 21.3625 202.733 23.1709 202.733 26.1095V26.7876H196.621V26.9006C196.517 28.2569 197.45 29.5002 198.693 29.6132C198.796 29.6132 198.796 29.6132 198.9 29.6132C199.729 29.7262 200.558 29.2741 200.972 28.483H202.629ZM196.621 25.4313H200.972C201.076 24.1881 200.143 23.0578 199.004 22.9448C198.9 22.9448 198.9 22.9448 198.796 22.9448C197.553 22.9448 196.621 23.962 196.621 25.4313C196.621 25.3183 196.621 25.3183 196.621 25.4313Z" fill="white"/>
</svg>
