<svg width="94" height="100" viewBox="0 0 94 100" fill="none" xmlns="http://www.w3.org/2000/svg">
<path d="M58.9172 85.6653V94.3007C58.9172 95.9816 57.4758 97.0791 55.1845 97.0791H48.8435V95.0624H52.0883L49.4147 86.9223H51.9174L54.5684 95.0624C55.2249 95.0624 55.6927 94.9386 56.012 94.6722C56.4145 94.3363 56.6056 93.7698 56.6056 92.9725V85.6635H58.9172V85.6653Z" fill="#231F20"/>
<path d="M72.6401 96.8314C72.6401 98.9382 71.1133 100 68.0373 100V98.4241C69.5213 98.3885 70.2634 97.5574 70.3061 96.1767C69.9036 96.7789 69.1391 97.079 68.0575 97.079C65.321 97.079 63.4974 95.3981 63.4974 93.0437C63.4974 90.6555 65.3839 89.0271 68.0575 89.0271C70.857 89.0271 72.6401 90.7606 72.6401 93.0981V96.8314ZM70.2005 93.1337C70.2005 91.753 69.31 90.8337 67.9518 90.8337C66.6994 90.8337 65.8741 91.843 65.8741 93.0456C65.8741 94.2837 66.7646 95.293 68.0598 95.293C69.3302 95.293 70.2005 94.3006 70.2005 93.1337Z" fill="#231F20"/>
<path d="M77.7713 84.7461H74.1017V83.9319H74.9493C74.8213 83.5961 74.7582 83.401 74.7582 83.3128C74.7582 82.4817 75.5003 81.8795 76.4132 81.8795C77.0068 81.8795 77.452 82.1459 77.7489 82.6581L76.9843 82.9939C76.9214 82.7294 76.7078 82.6055 76.3907 82.6055C75.9455 82.6055 75.6689 82.9414 75.6689 83.2772C75.6689 83.5773 75.7971 83.8081 76.0512 83.9319H77.7691V84.7461H77.7713ZM77.1777 97.0791H74.8234V85.6466H77.1777V97.0791Z" fill="#231F20"/>
<path d="M23.1445 74.3735C23.3109 74.4166 23.394 74.5442 23.394 74.7562V78.2024C23.394 78.4369 23.1265 78.5533 22.5913 78.5533H20.716C19.4163 78.5533 18.2876 78.255 17.3297 77.6603C16.3717 77.0656 15.6792 76.2551 15.2452 75.2346C14.6583 75.9156 13.8623 76.484 12.855 76.9418C11.8476 77.3995 10.7324 77.6284 9.50687 77.6284C8.23192 77.6284 7.02667 77.4745 5.89115 77.165C4.75561 76.8573 3.76849 76.4146 2.92527 75.8405C2.0843 75.2665 1.42097 74.5536 0.935279 73.7018C0.449585 72.8501 0.208984 71.8821 0.208984 70.7978C0.208984 69.7134 0.406856 68.7172 0.802606 67.813C1.19835 66.9087 1.79648 66.1321 2.60147 65.483C3.40421 64.8338 4.41833 64.3292 5.6438 63.9671C6.86703 63.605 8.30836 63.425 9.96561 63.425C15.1418 63.425 19.3376 66.9256 19.3376 71.2443V71.4675C19.3376 72.0209 19.3759 72.4843 19.4523 72.8558C19.5288 73.2272 19.6682 73.5199 19.8728 73.7337C20.0774 73.9457 20.3382 74.0958 20.6575 74.1802C20.9769 74.2647 21.3906 74.3078 21.9011 74.3078H22.5891C22.7937 74.3097 22.9781 74.3322 23.1445 74.3735ZM8.74009 55.7351V59.3727H3.61333V55.7351H8.74009ZM12.1265 72.8576C12.8032 72.3999 13.1406 71.6288 13.1406 70.5445V70.1937C13.1406 68.7304 11.7195 67.5447 9.96561 67.5447C8.74234 67.5447 7.84966 67.8374 7.28752 68.4227C6.72537 69.008 6.44654 69.7997 6.44654 70.7996C6.44654 71.7151 6.71412 72.4018 7.24928 72.8576C7.78444 73.3135 8.62542 73.5443 9.77444 73.5443C10.6649 73.5443 11.4496 73.3154 12.1265 72.8576ZM15.6252 55.7351V59.3727H10.4603V55.7351H15.6252Z" fill="#231F20"/>
<path d="M51.987 74.3753C51.8205 74.3322 51.6362 74.3116 51.4316 74.3116H50.7053C50.2713 74.3116 49.8688 74.2853 49.5001 74.2309C49.1312 74.1784 48.4432 73.518 48.279 73.1653C48.279 73.1653 47.3796 75.9794 46.2553 76.9174C46.9299 77.4802 47.0581 77.6903 47.8181 78.013C48.6726 78.375 49.545 78.5551 50.4377 78.5551H51.4339C51.9689 78.5551 52.2366 78.4388 52.2366 78.2043V74.7581C52.2366 74.5442 52.1533 74.4166 51.987 74.3753ZM47.3323 71.6926C47.3323 70.3738 47.0603 69.2238 46.5207 68.2445C45.9788 67.2652 45.2367 66.4472 44.2901 65.7869C43.3456 65.1265 42.2303 64.6369 40.9464 64.3198C39.6625 64.0009 38.2886 63.8414 36.827 63.8414C35.3408 63.8414 33.9601 64.0009 32.6896 64.3198C31.417 64.6387 30.3084 65.1284 29.364 65.7869C28.4196 66.4472 27.6753 67.2652 27.1357 68.2445C26.5937 69.2238 26.3216 70.3719 26.3216 71.6926C26.3216 72.0472 26.2902 72.3586 26.2273 72.6269C26.189 72.7939 26.1373 72.9458 26.0743 73.0809C26.0676 73.0959 26.0608 73.1109 26.0541 73.1259C25.8944 73.4561 25.6875 73.7056 25.4335 73.8801C25.1682 74.062 24.8466 74.1784 24.4688 74.2309C24.0911 74.2834 23.6998 74.3116 23.2974 74.3116H22.5801C22.3776 74.3116 22.1956 74.3322 22.0314 74.3753C21.8672 74.4185 21.7863 74.5461 21.7863 74.7581V78.2043C21.7863 78.4388 22.0516 78.5551 22.5801 78.5551H23.5626C24.4194 78.5551 25.2693 78.375 26.1126 78.013C26.8659 77.6903 27.4819 77.2494 27.9654 76.6904C27.9969 76.6547 28.026 76.6191 28.0553 76.5834C28.0823 76.5497 28.1093 76.5159 28.134 76.4821C29.0897 77.5027 30.3376 78.2644 31.8757 78.7634C33.4115 79.2624 35.0619 79.5138 36.827 79.5138C38.5922 79.5138 40.2359 79.2643 41.7582 78.7634C42.9836 78.3619 44.0248 77.7916 44.8837 77.0543C46.2755 75.6398 47.1683 73.8632 47.3369 71.9177C47.3346 71.8446 47.3323 71.7695 47.3323 71.6926ZM39.7367 74.3904C39.1071 75.1239 38.1357 75.4916 36.827 75.4916C35.4913 75.4916 34.5155 75.1239 33.8972 74.3904C33.281 73.6568 32.9707 72.7563 32.9707 71.6926C32.9707 70.6289 33.2788 69.7284 33.8972 68.9949C34.5155 68.2614 35.4913 67.8937 36.827 67.8937C38.138 67.8937 39.1071 68.2614 39.7367 68.9949C40.3663 69.7284 40.6811 70.627 40.6811 71.6926C40.6811 72.7563 40.3663 73.6568 39.7367 74.3904Z" fill="#231F20"/>
<path d="M50.5908 75.0133C50.5908 74.8219 50.674 74.6568 50.8403 74.518C51.0067 74.3792 51.2046 74.3098 51.434 74.3098H69.942C69.9443 74.321 69.8026 69.4884 68.4647 68.1977C67.5675 67.3309 66.432 66.8732 64.8242 66.8732C64.1092 66.8732 63.4279 66.9632 62.778 67.1452C62.1282 67.3253 61.5413 67.5711 61.0174 67.8787C60.4957 68.1864 60.0617 68.5485 59.7178 68.9631C59.3737 69.3777 59.151 69.8092 59.0477 70.2557H53.0799C53.1564 69.1919 53.5319 68.207 54.2087 67.3028C54.8855 66.3985 55.758 65.6219 56.8283 64.9728C57.8987 64.3237 59.1241 63.8134 60.5002 63.44C61.8786 63.0686 63.3177 62.881 64.8242 62.881C66.7378 62.881 68.4333 63.093 69.9127 63.5188C71.3923 63.9447 72.6471 64.545 73.6814 65.3217C74.7135 66.0984 75.5297 67.0345 76.1301 68.1301C76.7305 69.2257 77.1059 70.4339 77.2589 71.7527C77.4118 72.9234 77.4231 78.1688 77.5512 78.5515H51.4317C51.2024 78.5515 51.0044 78.482 50.8381 78.3432C50.6717 78.2044 50.5885 78.0393 50.5885 77.848V75.0133H50.5908Z" fill="#231F20"/>
<path d="M91.7533 78.0449C91.7533 79.2999 91.6251 80.4274 91.3711 81.4273C91.117 82.4273 90.6898 83.279 90.0893 83.9806C89.489 84.6823 88.693 85.2207 87.6992 85.5921C86.7052 85.9636 85.4798 86.1512 84.0272 86.1512C83.4404 86.1512 82.8287 86.108 82.1902 86.0236C81.5515 85.9392 80.9916 85.8116 80.506 85.6409V81.9076C80.8118 82.0783 81.1625 82.189 81.5582 82.2434C81.954 82.296 82.3678 82.3241 82.8018 82.3241C83.7709 82.3241 84.4207 81.9883 84.7535 81.3185C85.0841 80.6488 85.2504 79.5569 85.2504 78.0467V64.9614H91.7533V78.0449ZM92.3649 55.7351V59.4703H85.862V55.7351H92.3649Z" fill="#231F20"/>
<path d="M0 39.6499H31.5588C39.4199 39.6499 45.7923 34.3333 45.7923 27.7747H0V39.6499Z" fill="url(#paint0_linear_496_3130)"/>
<path d="M45.7922 27.7747H92.3648V15.8994H60.028C52.1647 15.8975 45.7922 21.2161 45.7922 27.7747Z" fill="url(#paint1_linear_496_3130)"/>
<path d="M75.5027 0C67.6417 0 61.2692 5.31667 61.2692 11.8753H92.3671V0H75.5027Z" fill="url(#paint2_linear_496_3130)"/>
<path d="M0 23.7525H47.0335C54.8946 23.7525 61.267 18.4358 61.267 11.8772H0V23.7525Z" fill="url(#paint3_linear_496_3130)"/>
<defs>
<linearGradient id="paint0_linear_496_3130" x1="-65.3969" y1="1.00202" x2="178.32" y2="130.712" gradientUnits="userSpaceOnUse">
<stop offset="0.2013" stop-color="#D92929"/>
<stop offset="0.2204" stop-color="#DA332B" stop-opacity="0.989"/>
<stop offset="0.2532" stop-color="#DD4E31" stop-opacity="0.9702"/>
<stop offset="0.2954" stop-color="#E27A3A" stop-opacity="0.9459"/>
<stop offset="0.3451" stop-color="#E9B747" stop-opacity="0.9173"/>
<stop offset="0.3752" stop-color="#EDDF4F" stop-opacity="0.9"/>
<stop offset="0.3994" stop-color="#CAD759" stop-opacity="0.9132"/>
<stop offset="0.4379" stop-color="#99CC67" stop-opacity="0.9342"/>
<stop offset="0.4744" stop-color="#72C372" stop-opacity="0.954"/>
<stop offset="0.5077" stop-color="#56BD7A" stop-opacity="0.9722"/>
<stop offset="0.5369" stop-color="#45B97E" stop-opacity="0.9881"/>
<stop offset="0.5587" stop-color="#3FB880"/>
</linearGradient>
<linearGradient id="paint1_linear_496_3130" x1="-52.5114" y1="-23.2092" x2="191.206" y2="106.501" gradientUnits="userSpaceOnUse">
<stop offset="0.2003" stop-color="#D92929"/>
<stop offset="0.2172" stop-color="#DA332B" stop-opacity="0.989"/>
<stop offset="0.2461" stop-color="#DD4E31" stop-opacity="0.9702"/>
<stop offset="0.2835" stop-color="#E27A3A" stop-opacity="0.9459"/>
<stop offset="0.3274" stop-color="#E9B747" stop-opacity="0.9173"/>
<stop offset="0.354" stop-color="#EDDF4F" stop-opacity="0.9"/>
<stop offset="0.3852" stop-color="#CAD759" stop-opacity="0.9132"/>
<stop offset="0.4349" stop-color="#99CC67" stop-opacity="0.9342"/>
<stop offset="0.4819" stop-color="#72C372" stop-opacity="0.954"/>
<stop offset="0.5249" stop-color="#56BD7A" stop-opacity="0.9722"/>
<stop offset="0.5625" stop-color="#45B97E" stop-opacity="0.9881"/>
<stop offset="0.5907" stop-color="#3FB880"/>
</linearGradient>
<linearGradient id="paint2_linear_496_3130" x1="-44.1693" y1="-38.8835" x2="199.549" y2="90.8267" gradientUnits="userSpaceOnUse">
<stop offset="0.2064" stop-color="#D92929"/>
<stop offset="0.2296" stop-color="#DA332B" stop-opacity="0.989"/>
<stop offset="0.2692" stop-color="#DD4E31" stop-opacity="0.9702"/>
<stop offset="0.3205" stop-color="#E27A3A" stop-opacity="0.9459"/>
<stop offset="0.3807" stop-color="#E9B747" stop-opacity="0.9173"/>
<stop offset="0.4172" stop-color="#EDDF4F" stop-opacity="0.9"/>
<stop offset="0.4284" stop-color="#CAD759" stop-opacity="0.9132"/>
<stop offset="0.4462" stop-color="#99CC67" stop-opacity="0.9342"/>
<stop offset="0.4631" stop-color="#72C372" stop-opacity="0.954"/>
<stop offset="0.4785" stop-color="#56BD7A" stop-opacity="0.9722"/>
<stop offset="0.492" stop-color="#45B97E" stop-opacity="0.9881"/>
<stop offset="0.5021" stop-color="#3FB880"/>
</linearGradient>
<linearGradient id="paint3_linear_496_3130" x1="-57.0548" y1="-14.6721" x2="186.663" y2="115.038" gradientUnits="userSpaceOnUse">
<stop offset="0.2078" stop-color="#D92929"/>
<stop offset="0.2251" stop-color="#DA332B" stop-opacity="0.989"/>
<stop offset="0.2546" stop-color="#DD4E31" stop-opacity="0.9702"/>
<stop offset="0.2928" stop-color="#E27A3A" stop-opacity="0.9459"/>
<stop offset="0.3377" stop-color="#E9B747" stop-opacity="0.9173"/>
<stop offset="0.3649" stop-color="#EDDF4F" stop-opacity="0.9"/>
<stop offset="0.3929" stop-color="#CAD759" stop-opacity="0.9132"/>
<stop offset="0.4374" stop-color="#99CC67" stop-opacity="0.9342"/>
<stop offset="0.4796" stop-color="#72C372" stop-opacity="0.954"/>
<stop offset="0.5182" stop-color="#56BD7A" stop-opacity="0.9722"/>
<stop offset="0.5519" stop-color="#45B97E" stop-opacity="0.9881"/>
<stop offset="0.5772" stop-color="#3FB880"/>
</linearGradient>
</defs>
</svg>
