<svg width="94" height="100" viewBox="0 0 94 100" fill="none" xmlns="http://www.w3.org/2000/svg">
<path d="M59.4356 85.6653V94.3007C59.4356 95.9816 57.9816 97.0791 55.6701 97.0791H49.2733V95.0624H52.5466L49.8495 86.9223H52.3742L55.0486 95.0624C55.7109 95.0624 56.1828 94.9386 56.5049 94.6722C56.9109 94.3363 57.1037 93.7698 57.1037 92.9725V85.6635H59.4356V85.6653Z" fill="#231F20"/>
<path d="M73.2793 96.8314C73.2793 98.9382 71.7391 100 68.636 100V98.4241C70.1331 98.3885 70.8817 97.5574 70.9248 96.1767C70.5187 96.7789 69.7475 97.079 68.6564 97.079C65.8958 97.079 64.0562 95.3981 64.0562 93.0437C64.0562 90.6555 65.9593 89.0271 68.6564 89.0271C71.4805 89.0271 73.2793 90.7606 73.2793 93.0981V96.8314ZM70.8182 93.1337C70.8182 91.753 69.9199 90.8337 68.5498 90.8337C67.2863 90.8337 66.4538 91.843 66.4538 93.0456C66.4538 94.2837 67.3521 95.293 68.6587 95.293C69.9403 95.293 70.8182 94.3006 70.8182 93.1337Z" fill="#231F20"/>
<path d="M78.4557 84.7461H74.7538V83.9319H75.6089C75.4797 83.5961 75.4161 83.401 75.4161 83.3128C75.4161 82.4817 76.1647 81.8795 77.0857 81.8795C77.6845 81.8795 78.1336 82.1459 78.4331 82.6581L77.6618 82.9939C77.5983 82.7294 77.3828 82.6055 77.063 82.6055C76.6138 82.6055 76.3348 82.9414 76.3348 83.2772C76.3348 83.5773 76.4641 83.8081 76.7205 83.9319H78.4535V84.7461H78.4557ZM77.8569 97.0791H75.4819V85.6466H77.8569V97.0791Z" fill="#231F20"/>
<path d="M23.3482 74.3735C23.516 74.4166 23.5999 74.5442 23.5999 74.7562V78.2024C23.5999 78.4369 23.33 78.5533 22.7901 78.5533H20.8983C19.5872 78.5533 18.4485 78.255 17.4822 77.6603C16.5158 77.0656 15.8172 76.2551 15.3794 75.2346C14.7873 75.9156 13.9843 76.484 12.9681 76.9418C11.9519 77.3995 10.8268 77.6284 9.59052 77.6284C8.30435 77.6284 7.0885 77.4745 5.94298 77.165C4.79745 76.8573 3.80164 76.4146 2.951 75.8405C2.10263 75.2665 1.43347 74.5536 0.943501 73.7018C0.453533 72.8501 0.210815 71.8821 0.210815 70.7978C0.210815 69.7134 0.410428 68.7172 0.809661 67.813C1.20889 66.9087 1.81228 66.1321 2.62435 65.483C3.43416 64.8338 4.4572 64.3292 5.69346 63.9671C6.92745 63.605 8.38147 63.425 10.0533 63.425C15.275 63.425 19.5078 66.9256 19.5078 71.2443V71.4675C19.5078 72.0209 19.5464 72.4843 19.6235 72.8558C19.7006 73.2272 19.8413 73.5199 20.0477 73.7337C20.2541 73.9457 20.5172 74.0958 20.8393 74.1802C21.1615 74.2647 21.5788 74.3078 22.0938 74.3078H22.7879C22.9943 74.3097 23.1803 74.3322 23.3482 74.3735ZM8.817 55.7351V59.3727H3.64512V55.7351H8.817ZM12.2332 72.8576C12.9159 72.3999 13.2562 71.6288 13.2562 70.5445V70.1937C13.2562 68.7304 11.8226 67.5447 10.0533 67.5447C8.81927 67.5447 7.91873 67.8374 7.35164 68.4227C6.78455 69.008 6.50326 69.7997 6.50326 70.7996C6.50326 71.7151 6.7732 72.4018 7.31307 72.8576C7.85294 73.3135 8.70132 73.5443 9.86045 73.5443C10.7587 73.5443 11.5504 73.3154 12.2332 72.8576ZM15.7627 55.7351V59.3727H10.5523V55.7351H15.7627Z" fill="#231F20"/>
<path d="M52.4445 74.3753C52.2766 74.3322 52.0906 74.3116 51.8842 74.3116H51.1515C50.7137 74.3116 50.3077 74.2853 49.9357 74.2309C49.5636 74.1784 48.8695 73.518 48.7039 73.1653C48.7039 73.1653 47.7966 75.9794 46.6624 76.9174C47.3429 77.4802 47.4722 77.6903 48.2389 78.013C49.1009 78.375 49.981 78.5551 50.8816 78.5551H51.8865C52.4263 78.5551 52.6963 78.4388 52.6963 78.2043V74.7581C52.6963 74.5442 52.6123 74.4166 52.4445 74.3753ZM47.7489 71.6926C47.7489 70.3738 47.4745 69.2238 46.9301 68.2445C46.3834 67.2652 45.6348 66.4472 44.6799 65.7869C43.7271 65.1265 42.602 64.6369 41.3068 64.3198C40.0116 64.0009 38.6256 63.8414 37.1511 63.8414C35.6518 63.8414 34.259 64.0009 32.9773 64.3198C31.6935 64.6387 30.5751 65.1284 29.6224 65.7869C28.6697 66.4472 27.9189 67.2652 27.3745 68.2445C26.8278 69.2238 26.5533 70.3719 26.5533 71.6926C26.5533 72.0472 26.5216 72.3586 26.4581 72.6269C26.4195 72.7939 26.3673 72.9458 26.3038 73.0809C26.297 73.0959 26.2902 73.1109 26.2834 73.1259C26.1223 73.4561 25.9136 73.7056 25.6573 73.8801C25.3897 74.062 25.0653 74.1784 24.6842 74.2309C24.3031 74.2834 23.9084 74.3116 23.5024 74.3116H22.7788C22.5746 74.3116 22.3909 74.3322 22.2253 74.3753C22.0597 74.4185 21.978 74.5461 21.978 74.7581V78.2043C21.978 78.4388 22.2457 78.5551 22.7788 78.5551H23.77C24.6343 78.5551 25.4917 78.375 26.3424 78.013C27.1023 77.6903 27.7238 77.2494 28.2115 76.6904C28.2433 76.6547 28.2727 76.6191 28.3022 76.5834C28.3295 76.5497 28.3567 76.5159 28.3816 76.4821C29.3457 77.5027 30.6046 78.2644 32.1562 78.7634C33.7055 79.2624 35.3705 79.5138 37.1511 79.5138C38.9318 79.5138 40.59 79.2643 42.1257 78.7634C43.3619 78.3619 44.4122 77.7916 45.2787 77.0543C46.6828 75.6398 47.5834 73.8632 47.7535 71.9177C47.7512 71.8446 47.7489 71.7695 47.7489 71.6926ZM40.0864 74.3904C39.4513 75.1239 38.4713 75.4916 37.1511 75.4916C35.8037 75.4916 34.8193 75.1239 34.1955 74.3904C33.5739 73.6568 33.2609 72.7563 33.2609 71.6926C33.2609 70.6289 33.5717 69.7284 34.1955 68.9949C34.8193 68.2614 35.8037 67.8937 37.1511 67.8937C38.4736 67.8937 39.4513 68.2614 40.0864 68.9949C40.7216 69.7284 41.0391 70.627 41.0391 71.6926C41.0391 72.7563 40.7216 73.6568 40.0864 74.3904Z" fill="#231F20"/>
<path d="M51.036 75.0133C51.036 74.8219 51.1199 74.6568 51.2877 74.518C51.4556 74.3792 51.6552 74.3098 51.8866 74.3098H70.5575C70.5598 74.321 70.4169 69.4884 69.0672 68.1977C68.1621 67.3309 67.0166 66.8732 65.3947 66.8732C64.6734 66.8732 63.9861 66.9632 63.3305 67.1452C62.6749 67.3253 62.0829 67.5711 61.5544 67.8787C61.0281 68.1864 60.5903 68.5485 60.2433 68.9631C59.8962 69.3777 59.6716 69.8092 59.5673 70.2557H53.547C53.6242 69.1919 54.003 68.207 54.6858 67.3028C55.3685 66.3985 56.2487 65.6219 57.3284 64.9728C58.4082 64.3237 59.6444 63.8134 61.0326 63.44C62.4232 63.0686 63.8749 62.881 65.3947 62.881C67.3251 62.881 69.0355 63.093 70.528 63.5188C72.0206 63.9447 73.2864 64.545 74.3298 65.3217C75.371 66.0984 76.1944 67.0345 76.8001 68.1301C77.4057 69.2257 77.7845 70.4339 77.9388 71.7527C78.093 72.9234 78.1044 78.1688 78.2337 78.5515H51.8843C51.653 78.5515 51.4533 78.482 51.2855 78.3432C51.1176 78.2044 51.0337 78.0393 51.0337 77.848V75.0133H51.036Z" fill="#231F20"/>
<path d="M92.5607 78.0449C92.5607 79.2999 92.4314 80.4274 92.1751 81.4273C91.9188 82.4273 91.4878 83.279 90.8821 83.9806C90.2765 84.6823 89.4735 85.2207 88.4709 85.5921C87.4682 85.9636 86.232 86.1512 84.7666 86.1512C84.1746 86.1512 83.5576 86.108 82.9134 86.0236C82.2691 85.9392 81.7043 85.8116 81.2144 85.6409V81.9076C81.5229 82.0783 81.8767 82.189 82.2759 82.2434C82.6752 82.296 83.0926 82.3241 83.5304 82.3241C84.508 82.3241 85.1636 81.9883 85.4993 81.3185C85.8328 80.6488 86.0006 79.5569 86.0006 78.0467V64.9614H92.5607V78.0449V78.0449ZM93.1777 55.7351V59.4703H86.6176V55.7351H93.1777Z" fill="#231F20"/>
<path d="M0 39.6499H31.8365C39.7668 39.6499 46.1953 34.3333 46.1953 27.7747H0V39.6499Z" fill="url(#paint0_linear_364_2560)"/>
<path d="M46.1952 27.7747H93.1776V15.8994H60.5562C52.6237 15.8975 46.1952 21.2161 46.1952 27.7747Z" fill="url(#paint1_linear_364_2560)"/>
<path d="M76.1671 0C68.2369 0 61.8083 5.31667 61.8083 11.8753H93.1799V0H76.1671Z" fill="url(#paint2_linear_364_2560)"/>
<path d="M0 23.7525H47.4474C55.3777 23.7525 61.8062 18.4358 61.8062 11.8772H0V23.7525Z" fill="url(#paint3_linear_364_2560)"/>
<defs>
<linearGradient id="paint0_linear_364_2560" x1="-65.9724" y1="1.00206" x2="178.934" y2="132.492" gradientUnits="userSpaceOnUse">
<stop offset="0.2013" stop-color="#D92929"/>
<stop offset="0.2204" stop-color="#DA332B" stop-opacity="0.989"/>
<stop offset="0.2532" stop-color="#DD4E31" stop-opacity="0.9702"/>
<stop offset="0.2954" stop-color="#E27A3A" stop-opacity="0.9459"/>
<stop offset="0.3451" stop-color="#E9B747" stop-opacity="0.9173"/>
<stop offset="0.3752" stop-color="#EDDF4F" stop-opacity="0.9"/>
<stop offset="0.3994" stop-color="#CAD759" stop-opacity="0.9132"/>
<stop offset="0.4379" stop-color="#99CC67" stop-opacity="0.9342"/>
<stop offset="0.4744" stop-color="#72C372" stop-opacity="0.954"/>
<stop offset="0.5077" stop-color="#56BD7A" stop-opacity="0.9722"/>
<stop offset="0.5369" stop-color="#45B97E" stop-opacity="0.9881"/>
<stop offset="0.5587" stop-color="#3FB880"/>
</linearGradient>
<linearGradient id="paint1_linear_364_2560" x1="-52.9735" y1="-23.2092" x2="191.933" y2="108.281" gradientUnits="userSpaceOnUse">
<stop offset="0.2003" stop-color="#D92929"/>
<stop offset="0.2172" stop-color="#DA332B" stop-opacity="0.989"/>
<stop offset="0.2461" stop-color="#DD4E31" stop-opacity="0.9702"/>
<stop offset="0.2835" stop-color="#E27A3A" stop-opacity="0.9459"/>
<stop offset="0.3274" stop-color="#E9B747" stop-opacity="0.9173"/>
<stop offset="0.354" stop-color="#EDDF4F" stop-opacity="0.9"/>
<stop offset="0.3852" stop-color="#CAD759" stop-opacity="0.9132"/>
<stop offset="0.4349" stop-color="#99CC67" stop-opacity="0.9342"/>
<stop offset="0.4819" stop-color="#72C372" stop-opacity="0.954"/>
<stop offset="0.5249" stop-color="#56BD7A" stop-opacity="0.9722"/>
<stop offset="0.5625" stop-color="#45B97E" stop-opacity="0.9881"/>
<stop offset="0.5907" stop-color="#3FB880"/>
</linearGradient>
<linearGradient id="paint2_linear_364_2560" x1="-44.558" y1="-38.8835" x2="200.349" y2="92.6066" gradientUnits="userSpaceOnUse">
<stop offset="0.2064" stop-color="#D92929"/>
<stop offset="0.2296" stop-color="#DA332B" stop-opacity="0.989"/>
<stop offset="0.2692" stop-color="#DD4E31" stop-opacity="0.9702"/>
<stop offset="0.3205" stop-color="#E27A3A" stop-opacity="0.9459"/>
<stop offset="0.3807" stop-color="#E9B747" stop-opacity="0.9173"/>
<stop offset="0.4172" stop-color="#EDDF4F" stop-opacity="0.9"/>
<stop offset="0.4284" stop-color="#CAD759" stop-opacity="0.9132"/>
<stop offset="0.4462" stop-color="#99CC67" stop-opacity="0.9342"/>
<stop offset="0.4631" stop-color="#72C372" stop-opacity="0.954"/>
<stop offset="0.4785" stop-color="#56BD7A" stop-opacity="0.9722"/>
<stop offset="0.492" stop-color="#45B97E" stop-opacity="0.9881"/>
<stop offset="0.5021" stop-color="#3FB880"/>
</linearGradient>
<linearGradient id="paint3_linear_364_2560" x1="-57.5569" y1="-14.6721" x2="187.35" y2="116.818" gradientUnits="userSpaceOnUse">
<stop offset="0.2078" stop-color="#D92929"/>
<stop offset="0.2251" stop-color="#DA332B" stop-opacity="0.989"/>
<stop offset="0.2546" stop-color="#DD4E31" stop-opacity="0.9702"/>
<stop offset="0.2928" stop-color="#E27A3A" stop-opacity="0.9459"/>
<stop offset="0.3377" stop-color="#E9B747" stop-opacity="0.9173"/>
<stop offset="0.3649" stop-color="#EDDF4F" stop-opacity="0.9"/>
<stop offset="0.3929" stop-color="#CAD759" stop-opacity="0.9132"/>
<stop offset="0.4374" stop-color="#99CC67" stop-opacity="0.9342"/>
<stop offset="0.4796" stop-color="#72C372" stop-opacity="0.954"/>
<stop offset="0.5182" stop-color="#56BD7A" stop-opacity="0.9722"/>
<stop offset="0.5519" stop-color="#45B97E" stop-opacity="0.9881"/>
<stop offset="0.5772" stop-color="#3FB880"/>
</linearGradient>
</defs>
</svg>
