<svg width="547" height="467" viewBox="0 0 547 467" fill="none" xmlns="http://www.w3.org/2000/svg">
<path d="M200.512 196.75H2.25V138.266H289.769C289.667 154.331 279.741 168.913 263.673 179.506C247.524 190.153 225.197 196.75 200.512 196.75Z" stroke="black" stroke-width="0.5"/>
<path d="M582.69 79.2432V137.727H290.268C290.37 121.661 300.295 107.08 316.362 96.4871C332.511 85.8406 354.838 79.2432 379.522 79.2432H582.69Z" stroke="black" stroke-width="0.5"/>
<path d="M582.75 58.7348H387.656C387.758 42.6687 397.684 28.0875 413.752 17.4943C429.901 6.84759 452.228 0.25 476.913 0.25H582.75V58.7348Z" stroke="black" stroke-width="0.5"/>
<path d="M297.843 117.757H2.25V59.2717H387.098C386.996 75.3376 377.07 89.9189 361.003 100.512C344.854 111.159 322.527 117.757 297.843 117.757Z" stroke="black" stroke-width="0.5"/>
<path d="M198.512 334.75H0.25V276.266H287.769C287.667 292.331 277.741 306.913 261.673 317.506C245.524 328.153 223.197 334.75 198.512 334.75Z" stroke="black" stroke-width="0.5"/>
<path d="M580.69 217.243V275.727H288.268C288.37 259.661 298.295 245.08 314.362 234.487C330.511 223.841 352.838 217.243 377.522 217.243H580.69Z" stroke="black" stroke-width="0.5"/>
<path d="M580.75 196.735H385.656C385.758 180.669 395.684 166.087 411.752 155.494C427.901 144.848 450.228 138.25 474.913 138.25H580.75V196.735Z" stroke="black" stroke-width="0.5"/>
<path d="M295.843 255.757H0.25V197.272H385.098C384.996 213.338 375.07 227.919 359.003 238.512C342.854 249.159 320.527 255.757 295.843 255.757Z" stroke="black" stroke-width="0.5"/>
<path d="M333.512 466.75H135.25V408.266H422.769C422.667 424.331 412.741 438.913 396.673 449.506C380.524 460.153 358.197 466.75 333.512 466.75Z" stroke="black" stroke-width="0.5"/>
<path d="M715.69 349.243V407.727H423.268C423.37 391.661 433.295 377.08 449.362 366.487C465.511 355.841 487.838 349.243 512.522 349.243H715.69Z" stroke="black" stroke-width="0.5"/>
<path d="M715.75 328.735H520.656C520.758 312.669 530.684 298.087 546.752 287.494C562.901 276.848 585.228 270.25 609.913 270.25H715.75V328.735Z" stroke="black" stroke-width="0.5"/>
<path d="M430.843 387.757H135.25V329.272H520.098C519.996 345.338 510.07 359.919 494.003 370.512C477.854 381.159 455.527 387.757 430.843 387.757Z" stroke="black" stroke-width="0.5"/>
</svg>
