<svg width="94" height="100" viewBox="0 0 94 100" fill="none" xmlns="http://www.w3.org/2000/svg">
<g clip-path="url(#clip0_272_1476)">
<path d="M0 42.6975H31.8369C39.7681 42.6975 46.1919 36.9262 46.1919 29.8193H0V42.6975Z" fill="url(#paint0_linear_272_1476)"/>
<path d="M46.1919 29.8109H93.1702V16.933H60.5466C52.6154 16.933 46.1919 22.704 46.1919 29.8109Z" fill="url(#paint1_linear_272_1476)"/>
<path d="M76.1655 -0.313477C68.2343 -0.313477 61.8105 5.45771 61.8105 12.5646H93.1795V-0.313477H76.1655Z" fill="url(#paint2_linear_272_1476)"/>
<path d="M0 25.451H47.4466C55.3778 25.451 61.8013 19.6797 61.8013 12.5729H0V25.451Z" fill="url(#paint3_linear_272_1476)"/>
<path d="M6.44242 99.418C5.56222 99.418 4.73821 99.2837 3.97974 99.0232C3.22126 98.7546 2.56581 98.3849 2.00397 97.9061C1.4515 97.4272 1.0114 96.8643 0.711759 96.2259C0.402753 95.5875 0.25293 94.8903 0.25293 94.1342C0.25293 93.3781 0.402753 92.664 0.711759 92.0256C1.02077 91.3872 1.4515 90.8243 2.00397 90.3538C2.55645 89.8835 3.2119 89.5054 3.97038 89.2451C4.72885 88.9847 5.55286 88.8503 6.44242 88.8503C7.332 88.8503 8.14665 88.9762 8.89575 89.2367C9.64485 89.4972 10.3003 89.8667 10.8528 90.3372C11.4053 90.8159 11.836 91.3704 12.1356 92.0172C12.4446 92.664 12.5945 93.3697 12.5945 94.1342C12.5945 94.8987 12.4446 95.6044 12.1356 96.2428C11.8266 96.8812 11.4053 97.444 10.8528 97.9228C10.3003 98.4017 9.64485 98.7712 8.89575 99.0317C8.14665 99.2921 7.32261 99.418 6.44242 99.418ZM6.44242 97.7465C7.02298 97.7465 7.55672 97.6625 8.04364 97.4776C8.53055 97.3013 8.95194 97.0492 9.31712 96.7299C9.68232 96.4109 9.96323 96.0243 10.1599 95.5875C10.3659 95.1507 10.4595 94.6633 10.4595 94.1342C10.4595 93.6051 10.3659 93.1177 10.1692 92.6809C9.97259 92.2441 9.69168 91.8575 9.32648 91.5385C8.9613 91.2191 8.53055 90.9671 8.053 90.7908C7.56608 90.6143 7.03234 90.5304 6.45178 90.5304C5.87123 90.5304 5.33749 90.6143 4.84122 90.7908C4.34492 90.9671 3.9142 91.2191 3.55835 91.5469C3.20253 91.8744 2.91226 92.2608 2.70626 92.6893C2.50026 93.1261 2.39725 93.6051 2.39725 94.1342C2.39725 94.6633 2.50026 95.1339 2.70626 95.5706C2.91226 96.0076 3.19317 96.394 3.55835 96.7215C3.9142 97.0492 4.34492 97.3013 4.84122 97.4776C5.33749 97.6541 5.87123 97.7465 6.45178 97.7465H6.44242Z" fill="#221F20"/>
<path d="M19.3831 99.2753V88.9847H21.5087V97.6542H27.5016V99.2671H19.3738L19.3831 99.2753Z" fill="#221F20"/>
<path d="M37.3419 90.9582V99.3761H35.0787V98.0365C34.5355 99.0279 33.2455 99.6081 31.7971 99.6081C29.2511 99.6081 27.384 97.7727 27.384 95.1776C27.384 92.5827 29.2511 90.7262 31.7971 90.7262C33.2455 90.7262 34.5355 91.3168 35.0787 92.3085V90.9478H37.3419V90.9582ZM31.7971 92.6249C30.2016 92.6249 29.1605 93.6377 29.1605 95.1776C29.1605 96.7177 30.1904 97.7094 31.7971 97.7094C33.404 97.7094 34.4337 96.6755 34.4337 95.1776C34.4337 93.6799 33.404 92.6249 31.7971 92.6249Z" fill="#221F20"/>
<path d="M19.7391 76.1821V76.3082H0.25293V71.0999L10.6374 60.0783H0.796032V54.4498H19.3832V58.6503C19.2334 58.7007 19.0836 58.7427 18.9431 58.7931C15.5441 59.9775 13.2312 62.6236 12.7536 66.1016L8.06236 71.0914H13.381C14.411 73.5024 16.4711 75.1321 18.812 75.9219C19.1211 76.0309 19.4394 76.1151 19.7484 76.1906L19.7391 76.1821Z" fill="#221F20"/>
<path d="M23.4939 58.9189C22.3141 58.9189 21.2092 59.0702 20.1979 59.3559C20.048 59.4063 19.8982 59.4399 19.7578 59.4903C19.5424 59.5576 19.327 59.6415 19.121 59.7254C16.7332 60.6916 15.0103 62.4977 14.2893 64.8667C14.205 65.1354 14.1301 65.4127 14.0739 65.6899C14.0177 65.925 13.9896 66.1688 13.9615 66.4208C13.9147 66.7652 13.896 67.1181 13.896 67.496C13.896 68.5292 14.0552 69.4702 14.3548 70.3018C14.4016 70.4361 14.4391 70.5623 14.4953 70.6966C14.5608 70.8309 14.6077 70.9571 14.6826 71.0914C15.6939 73.2253 17.6041 74.5944 19.6735 75.2413C19.8139 75.2917 19.9638 75.3338 20.1136 75.3674C20.254 75.4178 20.4039 75.4429 20.5537 75.4682C21.1904 75.611 21.8552 75.6782 22.4826 75.6782C25.0296 75.6782 27.0428 74.586 27.9699 72.612L27.9417 76.3082H31.0693L31.0974 62.0525C29.4399 60.0616 26.7525 58.9189 23.4846 58.9189H23.4939ZM23.4565 70.7723C21.2653 70.7723 19.8046 69.3776 19.8046 67.2944C19.8046 65.2111 21.2747 63.8249 23.4565 63.8249C25.6382 63.8249 27.1083 65.2196 27.1083 67.2944C27.1083 69.3694 25.6382 70.7723 23.4565 70.7723Z" fill="#221F20"/>
<path d="M48.9166 61.9432C48.8417 62.0944 48.7576 62.2457 48.6921 62.3969C48.1957 63.4973 47.9335 64.791 47.9335 66.261V76.3082H43.9631V66.9666C43.9631 64.8581 42.98 63.7913 41.0323 63.7913C39.0848 63.7913 38.0922 64.9169 38.0922 66.9666L38.0641 76.3082H32.2397L32.2679 51.9464H38.0922V59.927C39.1689 58.9778 40.5267 58.4822 42.0716 58.4822C44.5626 58.4822 47.3343 59.4565 48.9261 61.9348L48.9166 61.9432Z" fill="#221F20"/>
<path d="M76.746 73.7123V76.3165H70.4815V66.2694C70.4815 64.0516 69.1519 63.7912 68.1499 63.7912C66.5862 63.7912 65.8558 64.581 65.8558 66.2694V76.3165H59.5914V66.2694C59.5914 64.581 58.861 63.7912 57.2973 63.7912C56.3048 63.7912 54.9657 64.0516 54.9657 66.2694V76.3165H49.1414V66.2694C49.1414 65.2278 49.2818 64.3037 49.5347 63.4972C49.6002 63.2871 49.6656 63.0855 49.75 62.8923C49.825 62.7076 49.9091 62.5395 49.9935 62.3716C51.2482 59.9857 53.7578 58.8937 56.7541 58.8937C59.2637 58.8937 61.3798 59.759 62.7189 61.439C64.0485 59.759 66.1274 58.8937 68.6744 58.8937C71.7738 58.8937 74.3489 60.0614 75.5568 62.6152C74.6859 64.0097 74.2082 65.6646 74.2082 67.5043C74.2082 69.8733 75.0136 71.8053 76.2872 73.2586C76.4181 73.4267 76.568 73.5779 76.7273 73.7207L76.746 73.7123Z" fill="#221F20"/>
<path d="M85.0048 58.919C81.3999 58.919 78.4877 60.3303 76.8491 62.674C76.7461 62.8252 76.643 62.9764 76.5494 63.1361C76.4558 63.304 76.3527 63.4636 76.2686 63.6486C75.7067 64.7741 75.407 66.0678 75.407 67.4876C75.407 69.218 75.8658 70.6797 76.6149 71.8559C76.7555 72.0658 76.8959 72.2758 77.055 72.4608C77.1862 72.6455 77.3361 72.8136 77.4951 72.973C79.2086 74.7961 81.7183 75.678 84.0031 75.678C86.55 75.678 88.5633 74.586 89.4901 72.612V76.3082H94.4531V67.454C94.4531 62.2288 90.567 58.9105 85.0048 58.9105V58.919ZM84.9675 70.7721C82.7763 70.7721 81.3157 69.3776 81.3157 67.2944C81.3157 65.2109 82.7857 63.8249 84.9675 63.8249C87.1493 63.8249 88.6193 65.2194 88.6193 67.2944C88.6193 69.3692 87.1493 70.7721 84.9675 70.7721Z" fill="#221F20"/>
</g>
<defs>
<linearGradient id="paint0_linear_272_1476" x1="-65.9682" y1="0.770157" x2="187.438" y2="126.199" gradientUnits="userSpaceOnUse">
<stop offset="0.2" stop-color="#C73C34"/>
<stop offset="0.22" stop-color="#C94737" stop-opacity="0.99"/>
<stop offset="0.26" stop-color="#D06741" stop-opacity="0.97"/>
<stop offset="0.32" stop-color="#DB9A51" stop-opacity="0.94"/>
<stop offset="0.38" stop-color="#EBE068" stop-opacity="0.9"/>
<stop offset="0.4" stop-color="#D0D76D" stop-opacity="0.92"/>
<stop offset="0.45" stop-color="#A1C977" stop-opacity="0.95"/>
<stop offset="0.49" stop-color="#7FBE7E" stop-opacity="0.98"/>
<stop offset="0.53" stop-color="#6BB882" stop-opacity="0.99"/>
<stop offset="0.56" stop-color="#64B684"/>
</linearGradient>
<linearGradient id="paint1_linear_272_1476" x1="-52.9712" y1="-25.49" x2="200.435" y2="99.9385" gradientUnits="userSpaceOnUse">
<stop offset="0.2" stop-color="#C73C34"/>
<stop offset="0.22" stop-color="#C94737" stop-opacity="0.99"/>
<stop offset="0.26" stop-color="#D06741" stop-opacity="0.97"/>
<stop offset="0.3" stop-color="#DB9A51" stop-opacity="0.94"/>
<stop offset="0.35" stop-color="#EBE068" stop-opacity="0.9"/>
<stop offset="0.38" stop-color="#D0D76D" stop-opacity="0.92"/>
<stop offset="0.45" stop-color="#A1C977" stop-opacity="0.95"/>
<stop offset="0.5" stop-color="#7FBE7E" stop-opacity="0.98"/>
<stop offset="0.55" stop-color="#6BB882" stop-opacity="0.99"/>
<stop offset="0.59" stop-color="#64B684"/>
</linearGradient>
<linearGradient id="paint2_linear_272_1476" x1="-44.5531" y1="-42.4928" x2="208.853" y2="82.9359" gradientUnits="userSpaceOnUse">
<stop offset="0.21" stop-color="#C73C34"/>
<stop offset="0.23" stop-color="#C94737" stop-opacity="0.99"/>
<stop offset="0.28" stop-color="#D06741" stop-opacity="0.97"/>
<stop offset="0.34" stop-color="#DB9A51" stop-opacity="0.94"/>
<stop offset="0.42" stop-color="#EBE068" stop-opacity="0.9"/>
<stop offset="0.43" stop-color="#D0D76D" stop-opacity="0.92"/>
<stop offset="0.45" stop-color="#A1C977" stop-opacity="0.95"/>
<stop offset="0.47" stop-color="#7FBE7E" stop-opacity="0.98"/>
<stop offset="0.49" stop-color="#6BB882" stop-opacity="0.99"/>
<stop offset="0.5" stop-color="#64B684"/>
</linearGradient>
<linearGradient id="paint3_linear_272_1476" x1="-57.5501" y1="-16.2242" x2="195.847" y2="109.195" gradientUnits="userSpaceOnUse">
<stop offset="0.21" stop-color="#C73C34"/>
<stop offset="0.23" stop-color="#C94737" stop-opacity="0.99"/>
<stop offset="0.26" stop-color="#D06741" stop-opacity="0.97"/>
<stop offset="0.31" stop-color="#DB9A51" stop-opacity="0.94"/>
<stop offset="0.36" stop-color="#EBE068" stop-opacity="0.9"/>
<stop offset="0.39" stop-color="#D0D76D" stop-opacity="0.92"/>
<stop offset="0.45" stop-color="#A1C977" stop-opacity="0.95"/>
<stop offset="0.5" stop-color="#7FBE7E" stop-opacity="0.98"/>
<stop offset="0.54" stop-color="#6BB882" stop-opacity="0.99"/>
<stop offset="0.58" stop-color="#64B684"/>
</linearGradient>
<clipPath id="clip0_272_1476">
<rect width="93.1818" height="100" fill="white"/>
</clipPath>
</defs>
</svg>
