<svg width="227" height="85" viewBox="0 0 227 85" fill="none" xmlns="http://www.w3.org/2000/svg">
<path d="M225.449 72.1938C225.449 79.6098 220.386 84.1736 213.636 84.1736H13.3405C6.48465 84.1736 1 78.2407 1 70.8247V14.3488C1 6.93282 6.48465 1 13.3405 1H213.636C220.491 1 225.449 6.93282 225.449 14.3488V72.1938Z" fill="#020202" stroke="white" stroke-width="1.1758" stroke-miterlimit="10"/>
<path d="M225.449 72.1938C225.449 79.6098 220.386 84.1736 213.636 84.1736H13.3405C6.48465 84.1736 1 78.2407 1 70.8247V14.3488C1 6.93282 6.48465 1 13.3405 1H213.636C220.491 1 225.449 6.93282 225.449 14.3488V72.1938Z" fill="#020202" stroke="white" stroke-width="1.1758" stroke-miterlimit="10"/>
<path d="M154.359 60.6707L152.671 62.3821C152.249 62.6102 151.933 62.8384 151.511 63.0666C150.351 63.6371 149.191 63.7512 148.136 63.7512C146.976 63.7512 145.288 63.6371 143.495 62.268C140.964 60.3284 139.909 57.1338 139.909 54.2815C139.909 48.3487 144.339 45.4963 148.03 45.4963C149.296 45.4963 150.562 45.8386 151.617 46.5232C153.41 47.7782 153.831 49.3755 154.042 50.2882L145.71 53.9392L142.968 54.1674C143.811 58.9593 146.87 61.8116 150.245 61.8116C151.933 61.8116 153.199 61.2411 154.359 60.6707C154.359 60.6707 154.57 60.4425 154.359 60.6707ZM149.402 50.9728C150.034 50.7446 150.456 50.5164 150.456 49.946C150.456 48.4627 148.874 46.6373 146.976 46.6373C145.605 46.6373 142.968 47.7782 142.968 51.8855C142.968 52.5701 143.073 53.2546 143.073 53.9392L149.402 50.9728Z" fill="white"/>
<path d="M137.061 60.3286C137.061 61.8118 137.272 62.0399 138.432 62.154C139.065 62.2681 139.593 62.2681 140.226 62.3822L138.96 63.1809H132.737C133.581 62.0399 133.686 61.9259 133.686 61.1272V60.3286V37.6241H130.944L133.581 36.255H138.643C137.589 36.9396 137.272 37.3959 137.061 38.6509V60.3286Z" fill="white"/>
<path d="M127.464 47.3224C128.307 48.0069 129.995 49.6042 129.995 52.4565C129.995 55.3089 128.518 56.5639 127.042 57.8189C126.62 58.2753 126.092 58.8457 126.092 59.6444C126.092 60.443 126.62 60.8994 127.042 61.2417L128.307 62.2685C129.889 63.6376 131.261 65.0067 131.261 67.6309C131.261 71.1677 128.096 74.8187 121.979 74.8187C116.916 74.8187 114.385 72.1946 114.385 69.3423C114.385 67.9731 115.018 66.0336 117.127 64.6645C119.342 63.1813 122.295 63.0672 123.877 62.9531C123.35 62.2685 122.823 61.584 122.823 60.3289C122.823 59.6444 123.034 59.3021 123.139 58.8457C122.717 58.8457 122.401 58.9598 121.979 58.9598C118.287 58.9598 116.178 55.9934 116.178 53.027C116.178 51.3156 116.916 49.376 118.393 47.8928C120.397 46.0674 122.823 45.8392 124.721 45.8392H131.999L129.784 47.2083L127.464 47.3224ZM124.932 64.2081C124.616 64.2081 124.51 64.2081 124.088 64.2081C123.772 64.2081 121.873 64.3222 120.397 64.7786C119.658 65.1208 117.338 66.0336 117.338 68.6577C117.338 71.3959 119.764 73.3355 123.561 73.3355C126.936 73.3355 128.729 71.6241 128.729 69.2282C128.729 67.2886 127.569 66.2618 124.932 64.2081ZM125.987 57.0203C126.831 56.1075 126.831 54.9666 126.831 54.282C126.831 51.5438 125.354 47.3224 122.401 47.3224C121.452 47.3224 120.502 47.7787 119.975 48.5774C119.342 49.376 119.237 50.4029 119.237 51.4297C119.237 53.9397 120.608 58.1612 123.666 58.1612C124.405 58.0471 125.354 57.5907 125.987 57.0203Z" fill="white"/>
<path d="M105.63 63.7512C100.04 63.7512 96.9812 59.0734 96.9812 54.7378C96.9812 49.7178 100.778 45.4963 106.157 45.4963C111.326 45.4963 114.595 49.8319 114.595 54.5097C114.49 58.9593 111.326 63.7512 105.63 63.7512ZM109.955 60.6707C110.798 59.4156 111.009 57.9324 111.009 56.4492C111.009 53.1405 109.533 46.6373 105.208 46.6373C104.048 46.6373 102.888 47.0936 102.044 47.8923C100.673 49.2614 100.462 50.8587 100.462 52.5701C100.462 56.3351 102.149 62.4961 106.474 62.4961C107.74 62.6102 109.216 61.8116 109.955 60.6707Z" fill="white"/>
<path d="M86.8556 63.7512C81.2655 63.7512 78.3123 59.0734 78.3123 54.7378C78.3123 49.7178 82.1093 45.4963 87.4885 45.4963C92.6567 45.4963 95.9264 49.8319 95.9264 54.5097C95.8209 58.9593 92.5512 63.7512 86.8556 63.7512ZM91.2855 60.6707C92.1293 59.4156 92.3403 57.9324 92.3403 56.4492C92.3403 53.1405 90.8637 46.6373 86.5392 46.6373C85.379 46.6373 84.2188 47.0936 83.375 47.8923C82.0038 49.2614 81.7929 50.8587 81.7929 52.5701C81.7929 56.3351 83.4805 62.4961 87.8049 62.4961C89.0706 62.6102 90.4418 61.8116 91.2855 60.6707Z" fill="white"/>
<path d="M75.9921 62.3822L71.2458 63.5231C69.3472 63.8654 67.6597 64.0935 65.7611 64.0935C56.6904 64.0935 53.2097 56.7916 53.2097 51.2011C53.2097 44.2414 58.167 37.8522 66.6049 37.8522C68.398 37.8522 70.0856 38.0804 71.6677 38.6509C74.0936 39.4495 75.2538 40.3623 75.9921 40.9327L73.2498 43.671L72.0896 43.8991L72.9334 42.53C71.7731 41.3891 69.7691 39.2213 65.8666 39.2213C60.6984 39.2213 56.6904 43.5569 56.6904 49.7179C56.6904 56.4493 61.2257 62.7244 68.398 62.7244C70.5074 62.7244 71.5622 62.2681 72.6169 61.8117V56.1071L67.6596 56.4493L70.2965 54.9661H77.2578L76.414 55.8789C76.203 56.1071 76.203 56.1071 76.0976 56.4493C76.0976 56.7916 75.9921 57.8184 75.9921 58.1607V62.3822Z" fill="white"/>
<path d="M164.59 60.7854V70.4833H162.797V45.8393H164.59V48.6916C165.75 46.8661 167.86 45.3829 170.286 45.3829C174.716 45.3829 177.669 49.0339 177.669 54.7385C177.669 60.4432 174.716 64.0941 170.286 64.0941C167.965 64.2082 165.856 62.8391 164.59 60.7854ZM175.77 54.7385C175.77 50.403 173.661 47.0943 169.969 47.0943C167.649 47.0943 165.434 49.0339 164.485 50.7453V58.6177C165.434 60.3291 167.649 62.3827 169.969 62.3827C173.661 62.3827 175.77 59.0741 175.77 54.7385Z" fill="white"/>
<path d="M180.095 63.7517V38.9936H181.888V63.7517H180.095Z" fill="white"/>
<path d="M201.928 68.8862C202.349 69.1144 202.982 69.2285 203.404 69.2285C204.459 69.2285 205.303 68.7721 205.936 67.0607L207.201 63.8661L200.135 45.8395H202.139L208.151 61.4702L214.163 45.8395H216.167L207.623 67.6312C206.779 69.913 205.303 70.9399 203.404 70.9399C202.877 70.9399 202.033 70.8258 201.611 70.7117L201.928 68.8862Z" fill="white"/>
<path d="M196.654 63.6382C196.549 63.0677 196.443 62.4972 196.338 62.0409C196.232 61.5845 196.232 61.1281 196.232 60.6718C195.599 61.6986 194.756 62.4972 193.701 63.0677C192.646 63.7523 191.591 63.9804 190.115 63.9804C188.427 63.9804 187.056 63.5241 186.107 62.6113C185.158 61.6986 184.63 60.4436 184.63 58.8463C184.63 57.249 185.368 55.994 186.74 54.9671C188.111 53.9403 189.904 53.4839 192.119 53.4839H196.232V51.2021C196.232 49.9471 195.81 48.9202 195.072 48.2357C194.228 47.5511 193.174 47.0947 191.697 47.0947C190.326 47.0947 189.271 47.437 188.427 48.1216C187.583 48.8061 187.162 49.6048 187.162 50.6316H185.368V50.5175C185.263 49.1484 185.896 48.0075 187.056 46.9806C188.216 45.9538 189.798 45.4974 191.802 45.4974C193.701 45.4974 195.283 45.9538 196.549 46.9806C197.709 48.0075 198.342 49.3766 198.342 51.3162V60.1013C198.342 60.7859 198.342 61.3563 198.447 61.9268C198.553 62.4972 198.658 63.0677 198.764 63.7523L196.654 63.6382ZM190.326 62.2691C191.802 62.2691 192.963 61.9268 194.017 61.1281C195.072 60.4436 195.916 59.4167 196.232 58.3899V54.9671H192.013C190.431 54.9671 189.06 55.3094 188.005 56.1081C186.951 56.9067 186.423 57.8194 186.423 58.8463C186.423 59.8731 186.74 60.6718 187.372 61.2422C188.322 61.9268 189.166 62.2691 190.326 62.2691Z" fill="white"/>
<path d="M53.3157 18.7983C53.3157 15.0332 55.9525 12.5232 59.1167 12.5232C61.3317 12.5232 62.7029 13.6641 63.5466 15.0332L61.9645 16.0601C61.3317 15.1473 60.277 14.4628 59.1167 14.4628C56.9018 14.4628 55.3197 16.2883 55.3197 18.7983C55.3197 21.3083 57.0073 23.1338 59.1167 23.1338C60.277 23.1338 61.2262 22.5633 61.7536 22.107V20.2815H58.3784V18.456H63.6521V22.9056C62.5974 24.2747 61.0153 25.0734 59.1167 25.0734C55.9525 24.9593 53.3157 22.5633 53.3157 18.7983Z" fill="white"/>
<path d="M66.1833 24.731V12.7512H73.7775V14.5767H68.0819V17.6572H73.672V19.4827H68.0819V22.7914H73.7775V24.6169L66.1833 24.731Z" fill="white"/>
<path d="M79.2619 24.731V14.5767H75.8867V12.7512H84.6411V14.5767H81.2659V24.731H79.2619Z" fill="white"/>
<path d="M91.3914 24.731V12.7512H93.3954V24.845H91.3914V24.731Z" fill="white"/>
<path d="M98.7748 24.731V14.5767H95.3997V12.7512H104.154V14.5767H100.779V24.731H98.7748Z" fill="white"/>
<path d="M110.376 18.7983C110.376 15.1473 112.697 12.5232 116.072 12.5232C119.447 12.5232 121.768 15.1473 121.768 18.7983C121.768 22.4493 119.447 25.0734 116.072 25.0734C112.697 24.9593 110.376 22.3352 110.376 18.7983ZM119.764 18.7983C119.764 16.2883 118.287 14.4628 116.072 14.4628C113.857 14.4628 112.38 16.2883 112.38 18.7983C112.38 21.3083 113.857 23.1338 116.072 23.1338C118.287 23.1338 119.764 21.1942 119.764 18.7983Z" fill="white"/>
<path d="M131.788 24.731L125.987 16.0599V24.731H123.983V12.7512H125.987L131.682 21.08V12.7512H133.686V24.845H131.788V24.731Z" fill="white"/>
<path d="M35.7017 47.5494L13.4467 34.3146C12.8138 33.9723 12.181 33.8583 11.7591 33.9724L30.0061 53.7104L35.7017 47.5494Z" fill="url(#paint0_linear_254_902)"/>
<path d="M35.701 59.9851L43.2951 55.4214C44.8772 54.5087 44.8772 53.0255 43.2951 52.1127L35.701 47.549L30.0054 53.71L35.701 59.9851Z" fill="url(#paint1_linear_254_902)"/>
<path d="M11.7588 33.9723C11.126 34.2005 10.5986 34.9991 10.5986 36.026V71.3947C10.5986 72.5356 11.0205 73.2202 11.6534 73.4483L29.9004 53.7103L11.7588 33.9723Z" fill="url(#paint2_linear_254_902)"/>
<path d="M11.6531 73.5624C12.1804 73.7906 12.7078 73.6765 13.3407 73.2201L35.7011 59.9853L30.0055 53.8243L11.6531 73.5624Z" fill="url(#paint3_linear_254_902)"/>
<defs>
<linearGradient id="paint0_linear_254_902" x1="26.117" y1="52.1581" x2="18.721" y2="22.4477" gradientUnits="userSpaceOnUse">
<stop stop-color="#D6E69E"/>
<stop offset="0.4456" stop-color="#94C3AA"/>
<stop offset="1" stop-color="#00A4B7"/>
</linearGradient>
<linearGradient id="paint1_linear_254_902" x1="25.3204" y1="31.5909" x2="43.616" y2="60.4769" gradientUnits="userSpaceOnUse">
<stop stop-color="#EB2D7C"/>
<stop offset="0.0192" stop-color="#ED357C"/>
<stop offset="0.7039" stop-color="#F5BB7F"/>
<stop offset="1" stop-color="#FAE875"/>
</linearGradient>
<linearGradient id="paint2_linear_254_902" x1="20.4545" y1="63.5304" x2="9.0382" y2="22.8095" gradientUnits="userSpaceOnUse">
<stop stop-color="#88CFBD"/>
<stop offset="0.0907" stop-color="#7EBEBB"/>
<stop offset="0.5396" stop-color="#467DAD"/>
<stop offset="0.8523" stop-color="#1E5BA2"/>
<stop offset="1" stop-color="#0B519C"/>
</linearGradient>
<linearGradient id="paint3_linear_254_902" x1="40.344" y1="60.833" x2="6.0675" y2="65.1736" gradientUnits="userSpaceOnUse">
<stop stop-color="#F04D27"/>
<stop offset="0.4704" stop-color="#B4516C"/>
<stop offset="0.8353" stop-color="#8C5292"/>
<stop offset="1" stop-color="#7B52A1"/>
</linearGradient>
</defs>
</svg>
